<?xml version="1.0" encoding="UTF-8" standalone="yes"?>
<svg xmlns="http://www.w3.org/2000/svg" width="102" height="138" viewBox="0 0 102 138"><title>Generated Animation</title>
<desc>6 frames at 15.000000 FPS</desc>
<g id="animationGroup">
<g id="frame0" opacity="0">

<path d="M0,0 L9,5 L14,12 L16,19 L16,34 L22,42 L24,49 L24,67 L23,70 L28,68 L32,67 L33,72 L31,74 L28,83 L29,91 L31,91 L35,97 L41,101 L40,104 L30,106 L34,114 L30,115 L19,110 L10,109 L8,113 L-1,111 L-4,106 L-4,100 L-9,93 L-11,82 L-19,79 L-26,73 L-29,64 L-29,50 L-27,40 L-23,35 L-25,20 L-23,11 L-16,2 L-13,3 L-13,12 L-14,15 L-14,27 L-13,32 L2,32 L6,28 L6,19 L1,10 L-1,1 Z " fill="#F6F6F6" transform="translate(47,13)"/>
<path d="M0,0 L5,2 L10,9 L12,16 L12,31 L18,39 L20,46 L20,64 L19,67 L24,65 L28,64 L29,69 L27,71 L24,80 L25,88 L27,88 L31,94 L37,98 L36,101 L26,103 L30,111 L26,112 L15,107 L6,106 L4,110 L-5,108 L-8,103 L-8,97 L-13,90 L-15,79 L-23,76 L-30,70 L-33,61 L-33,47 L-31,37 L-27,32 L-29,17 L-27,8 L-22,3 L-24,8 L-26,14 L-26,23 L-24,33 L-29,40 L-29,53 L-26,54 L-25,56 L-25,71 L-20,74 L0,74 L8,72 L13,69 L16,64 L17,60 L17,46 L14,38 L13,35 L10,36 L6,41 L4,41 L4,39 L6,38 L9,30 L9,15 L4,5 Z " fill="#090909" transform="translate(51,16)"/>
<path d="M0,0 L17,0 L30,6 L31,1 L38,5 L37,8 L27,10 L31,18 L27,19 L16,14 L7,13 L5,17 L-4,15 L-7,10 L-6,4 L0,2 Z " fill="#040404" transform="translate(50,109)"/>
<path d="M0,0 L5,2 L10,9 L12,16 L12,31 L18,39 L20,46 L20,64 L19,67 L24,65 L28,64 L27,68 L24,71 L23,78 L18,79 L19,83 L26,91 L25,93 L13,84 L2,79 L2,77 L8,75 L8,72 L13,69 L16,64 L17,60 L17,46 L14,38 L13,35 L10,36 L6,41 L4,41 L4,39 L6,38 L9,30 L9,15 L4,5 Z " fill="#151515" transform="translate(51,16)"/>
<path d="M0,0 L0,3 L-3,11 L-3,20 L-1,30 L-6,37 L-6,50 L-3,51 L-2,53 L-2,68 L3,71 L24,72 L23,75 L18,76 L17,91 L15,90 L14,86 L14,76 L16,73 L1,74 L-7,67 L-10,58 L-10,44 L-8,34 L-4,29 L-6,14 L-4,5 Z " fill="#0C0C0C" transform="translate(28,19)"/>
<path d="M0,0 L9,1 L22,9 L31,16 L33,17 L33,19 L24,16 L20,14 L6,14 L1,12 L0,7 L9,11 L8,9 L1,5 Z " fill="#4E4E4E" transform="translate(47,96)"/>
<path d="M0,0 L4,2 L2,3 L4,6 L6,13 L9,18 L9,28 L6,34 L5,35 L-12,35 L-17,29 L-17,16 L-16,10 L-18,4 L-14,2 L-13,7 L-14,15 L-14,27 L-13,32 L2,32 L6,28 L6,19 L1,10 L-1,1 Z " fill="#191919" transform="translate(47,13)"/>
<path d="M0,0 L6,0 L9,5 L9,13 L6,17 L1,17 L-2,14 L-3,11 L-3,4 Z " fill="#0B0B0B" transform="translate(37,68)"/>
<path d="M0,0 L5,2 L10,9 L12,16 L12,31 L18,39 L19,44 L17,46 L14,38 L13,35 L10,36 L6,41 L4,41 L4,39 L6,38 L9,30 L9,15 L4,5 Z " fill="#292929" transform="translate(51,16)"/>
<path d="M0,0 L25,1 L24,4 L19,5 L18,20 L16,19 L15,15 L15,5 L17,2 L2,3 Z " fill="#101010" transform="translate(27,90)"/>
<path d="M0,0 L2,0 L3,3 L-4,4 L-4,6 L1,7 L13,14 L18,19 L15,19 L1,10 L-4,8 L-10,7 L-6,5 L-6,1 Z " fill="#141414" transform="translate(57,89)"/>
<path d="M0,0 L9,0 L18,7 L24,14 L23,16 L11,7 L0,2 Z " fill="#4C4C4C" transform="translate(53,93)"/>
<path d="M0,0 L0,3 L-3,11 L-3,20 L-1,30 L-6,37 L-6,50 L-4,51 L-7,51 L-8,49 L-8,34 L-4,29 L-6,14 L-4,5 Z " fill="#1C1C1C" transform="translate(28,19)"/>
<path d="M0,0 L3,1 L3,10 L2,13 L1,29 L-1,27 L-1,14 L0,8 L-2,2 Z " fill="#242424" transform="translate(31,15)"/>
<path d="M0,0 L2,0 L0,4 L-2,6 L-3,12 L-8,12 L-10,10 L-9,6 L-3,3 Z " fill="#929292" transform="translate(77,81)"/>
<path d="M0,0 L9,4 L10,2 L18,5 L16,7 L6,7 L1,5 Z " fill="#1B1B1B" transform="translate(47,103)"/>
<path d="M0,0 L3,1 L-3,6 L-8,8 L-7,14 L-11,12 L-12,7 L-8,3 L-1,1 Z " fill="#060606" transform="translate(76,80)"/>
<path d="M0,0 L5,2 L10,9 L12,16 L12,28 L11,28 L9,15 L4,5 Z " fill="#151515" transform="translate(51,16)"/>
<path d="M0,0 L3,0 L3,15 L1,14 L0,10 Z " fill="#434343" transform="translate(42,95)"/>
<path d="M0,0 L4,2 L10,9 L9,11 L-3,2 Z " fill="#454545" transform="translate(67,98)"/>
<path d="M0,0 L2,3 L2,5 L16,6 L14,8 L3,8 L0,5 Z " fill="#090909" transform="translate(32,40)"/>
<path d="M0,0 L4,2 L2,3 L4,6 L4,14 L2,13 L-1,1 Z " fill="#0D0D0D" transform="translate(47,13)"/>
<path d="M0,0 L10,0 L8,5 L4,3 L3,6 L2,3 L0,2 Z " fill="#030303" transform="translate(34,92)"/>
<path d="M0,0 L7,4 L6,7 L3,8 L3,6 L1,6 L1,3 L-1,2 Z " fill="#020202" transform="translate(81,110)"/>
<path d="M0,0 L11,5 L11,6 L3,6 L0,3 Z " fill="#4B4B4B" transform="translate(47,103)"/>
<path d="M0,0 L1,0 L0,7 L-2,9 L-8,9 L-3,5 Z " fill="#121212" transform="translate(54,39)"/>
<path d="M0,0 L2,1 L4,5 L6,5 L5,8 L3,10 L-1,4 Z M1,9 Z " fill="#020202" transform="translate(40,71)"/>
<path d="M0,0 L9,0 L9,2 L7,4 L2,3 Z " fill="#D0D0D0" transform="translate(36,48)"/>
<path d="M0,0 L2,3 L2,10 L-2,5 L-2,1 Z " fill="#1F1F1F" transform="translate(40,94)"/>
<path d="M0,0 L13,1 L13,2 L2,3 Z " fill="#2E2E2E" transform="translate(27,90)"/>
<path d="M0,0 L2,0 L0,4 L-4,9 L-4,6 L-6,5 Z " fill="#7F7F7F" transform="translate(77,81)"/>
<path d="M0,0 L3,1 L-3,6 L-7,6 L-6,3 L-1,1 Z " fill="#0E0E0E" transform="translate(76,80)"/>
<path d="M0,0 L2,1 L0,6 L-1,7 L-6,7 L-3,6 L-1,2 Z " fill="#1F1F1F" transform="translate(44,78)"/>
<path d="M0,0 L2,4 L2,7 L0,7 L0,12 L-1,12 L-1,2 Z " fill="#050505" transform="translate(46,95)"/>
<path d="M0,0 L1,4 L-3,7 L-4,12 L-5,12 L-5,6 Z " fill="#1C1C1C" transform="translate(79,81)"/>
<path d="M0,0 L2,1 L3,7 L0,7 L-2,1 Z " fill="#010101" transform="translate(72,95)"/>
<path d="M0,0 L2,1 L3,7 L0,7 L0,3 Z " fill="#1D1D1D" transform="translate(43,69)"/>
<path d="M0,0 L4,2 L2,3 L3,6 L1,7 L-1,1 Z " fill="#060606" transform="translate(47,13)"/>

<animate attributeName="opacity" dur="0.400000s" values="0;1;0" keyTimes="0;0.000000;0.166667" calcMode="discrete" repeatCount="indefinite" begin="0s"/>
</g>
<g id="frame1" opacity="0">

<path d="M0,0 L10,6 L15,14 L16,18 L16,33 L22,41 L24,48 L24,65 L23,69 L27,68 L28,65 L33,64 L35,67 L32,71 L30,79 L27,84 L37,91 L40,94 L40,96 L27,98 L23,100 L24,105 L28,107 L28,110 L26,111 L18,111 L15,109 L12,109 L12,116 L8,116 L4,112 L3,103 L-7,90 L-10,81 L-19,78 L-26,72 L-29,63 L-29,47 L-27,39 L-23,34 L-24,27 L-24,14 L-20,6 L-16,2 L-13,3 L-13,11 L-14,14 L-14,25 L-12,31 L2,31 L6,30 L7,20 L4,14 L2,12 L0,4 L-1,1 Z " fill="#F5F5F5" transform="translate(46,16)"/>
<path d="M0,0 L3,1 L3,9 L2,12 L2,23 L4,29 L18,29 L22,28 L23,18 L23,15 L25,15 L25,26 L20,32 L4,32 L0,28 L-1,25 L-1,14 L0,8 L-1,4 L-6,13 L-6,24 L-4,29 L-4,34 L-7,37 L-9,40 L-9,53 L-6,54 L-5,56 L-5,67 L-7,67 L-3,73 L-1,74 L20,74 L29,71 L35,66 L37,60 L37,46 L34,38 L33,36 L30,36 L26,41 L24,40 L28,34 L29,30 L29,15 L25,7 L21,2 L26,4 L31,12 L32,16 L32,31 L38,39 L40,46 L40,63 L39,67 L43,66 L44,63 L49,62 L51,65 L48,69 L46,77 L43,82 L53,89 L56,92 L56,94 L43,96 L39,98 L40,103 L44,105 L44,108 L42,109 L34,109 L31,107 L28,107 L28,114 L24,114 L20,110 L19,101 L9,88 L6,79 L-3,76 L-10,70 L-13,61 L-13,45 L-11,37 L-7,32 L-8,25 L-8,12 L-4,4 Z " fill="#0E0E0E" transform="translate(30,18)"/>
<path d="M0,0 L4,1 L5,3 L2,7 L0,15 L-3,20 L7,27 L10,30 L10,32 L-3,34 L-7,36 L-6,41 L-2,43 L-2,46 L-4,47 L-12,47 L-15,45 L-18,45 L-18,52 L-22,52 L-26,48 L-27,39 L-37,26 L-38,20 L-34,21 L-33,28 L-32,29 L-30,25 L-25,30 L-21,32 L-6,32 L6,30 L1,29 L-13,28 L-13,27 L-3,26 L-3,24 L-18,18 L-18,15 L-12,17 L-10,17 L-14,14 L-14,12 L-9,13 L-5,14 L-1,13 L-2,7 L2,2 L-5,7 L-3,2 Z " fill="#040404" transform="translate(76,80)"/>
<path d="M0,0 L3,1 L3,9 L2,12 L2,23 L4,29 L18,29 L22,28 L23,18 L23,15 L25,15 L25,26 L20,32 L4,32 L0,28 L-1,25 L-1,14 L0,8 L-1,4 L-6,13 L-6,24 L-4,29 L-4,34 L-7,37 L-9,40 L-9,53 L-6,54 L-5,56 L-5,67 L-7,67 L-3,73 L-1,74 L14,75 L14,76 L-2,77 L-10,70 L-13,61 L-13,45 L-11,37 L-7,32 L-8,25 L-8,12 L-4,4 Z " fill="#131313" transform="translate(30,18)"/>
<path d="M0,0 L3,1 L3,9 L2,12 L2,23 L4,29 L18,29 L22,28 L23,18 L23,15 L25,15 L25,26 L20,32 L4,32 L0,28 L-1,25 L-1,14 L0,8 L-1,4 L-6,13 L-6,24 L-4,29 L-4,34 L-7,35 L-8,25 L-8,12 L-4,4 Z " fill="#191919" transform="translate(30,18)"/>
<path d="M0,0 L6,0 L8,2 L9,6 L9,13 L6,17 L1,17 L-3,12 L-3,4 Z " fill="#0C0C0C" transform="translate(36,70)"/>
<path d="M0,0 L7,6 L14,9 L31,9 L37,11 L37,12 L24,14 L9,14 L3,10 L0,7 Z " fill="#4D4D4D" transform="translate(46,99)"/>
<path d="M0,0 L5,1 L15,6 L22,9 L23,11 L10,11 L1,8 L-3,4 L-3,1 Z " fill="#4E4E4E" transform="translate(52,95)"/>
<path d="M0,0 L5,2 L10,10 L11,14 L11,29 L12,33 L9,34 L5,39 L3,38 L7,32 L8,28 L8,13 L4,5 Z " fill="#363636" transform="translate(51,20)"/>
<path d="M0,0 L2,0 L0,4 L-1,9 L-1,11 L-5,13 L-9,12 L-13,9 L-8,5 L-3,3 Z " fill="#838383" transform="translate(76,82)"/>
<path d="M0,0 L4,2 L13,5 L24,6 L21,9 L11,9 L3,5 L0,2 Z " fill="#121212" transform="translate(49,100)"/>
<path d="M0,0 L5,5 L7,12 L7,23 L5,24 L3,8 L0,2 Z " fill="#0C0C0C" transform="translate(63,52)"/>
<path d="M0,0 L5,2 L10,10 L11,14 L11,26 L10,26 L8,13 L4,5 Z " fill="#101010" transform="translate(51,20)"/>
<path d="M0,0 L4,1 L5,3 L0,8 L-2,9 L0,5 L2,2 L-5,7 L-3,2 Z " fill="#101010" transform="translate(76,80)"/>
<path d="M0,0 L7,0 L13,2 L13,3 L0,4 Z " fill="#424242" transform="translate(70,108)"/>
<path d="M0,0 L5,3 L3,4 L6,15 L2,12 L0,4 L-1,1 Z " fill="#161616" transform="translate(46,16)"/>
<path d="M0,0 L2,0 L3,13 L0,11 L-1,1 Z " fill="#484848" transform="translate(42,97)"/>
<path d="M0,0 L2,0 L2,11 L-2,16 L-5,15 L-1,13 L0,3 Z " fill="#2F2F2F" transform="translate(53,33)"/>
<path d="M0,0 L6,1 L11,6 L6,5 L0,2 Z " fill="#434343" transform="translate(58,93)"/>
<path d="M0,0 L3,4 L3,9 L0,10 Z " fill="#272727" transform="translate(23,43)"/>

<animate attributeName="opacity" dur="0.400000s" values="0;1;0" keyTimes="0;0.166667;0.333333" calcMode="discrete" repeatCount="indefinite" begin="0s"/>
</g>
<g id="frame2" opacity="0">

<path d="M0,0 L9,5 L14,12 L16,19 L17,35 L22,41 L24,48 L24,69 L29,65 L32,65 L32,72 L28,82 L29,87 L34,93 L40,96 L41,98 L38,101 L30,103 L27,106 L21,107 L21,116 L22,121 L17,120 L11,115 L6,112 L2,106 L-1,100 L-6,95 L-9,90 L-10,83 L-12,81 L-19,79 L-26,73 L-29,65 L-29,50 L-27,40 L-23,35 L-25,19 L-22,9 L-16,2 L-13,3 L-13,12 L-14,15 L-14,27 L-11,32 L0,32 L5,30 L6,28 L6,21 L3,13 L-1,3 Z " fill="#F5F5F5" transform="translate(47,12)"/>
<path d="M0,0 L9,5 L14,12 L16,19 L17,35 L22,41 L24,48 L24,69 L29,65 L32,65 L32,72 L28,82 L29,87 L34,93 L40,96 L41,98 L38,101 L30,103 L27,106 L21,107 L21,116 L22,121 L17,120 L11,115 L6,112 L2,106 L-1,100 L-6,95 L-9,90 L-10,83 L-12,81 L-19,79 L-26,73 L-29,65 L-29,50 L-27,40 L-23,35 L-25,19 L-22,9 L-16,2 L-13,3 L-13,12 L-14,15 L-14,27 L-11,32 L0,32 L5,30 L6,28 L6,21 L3,13 L-1,3 Z M2,3 L4,12 L8,19 L8,26 L4,34 L-12,34 L-16,28 L-16,15 L-15,10 L-16,5 L-20,9 L-23,16 L-23,26 L-21,32 L-22,37 L-26,44 L-26,56 L-23,57 L-22,59 L-22,73 L-19,77 L-16,78 L4,78 L14,75 L19,70 L22,63 L22,48 L18,39 L15,38 L8,44 L8,42 L10,42 L14,33 L14,18 L10,9 L4,3 Z " fill="#080808" transform="translate(47,12)"/>
<path d="M0,0 L4,2 L2,3 L4,6 L6,13 L9,19 L9,26 L5,34 L4,35 L-12,35 L-16,30 L-17,28 L-17,15 L-16,10 L-17,6 L-22,16 L-22,26 L-20,32 L-21,37 L-25,44 L-26,56 L-22,57 L-21,59 L-21,73 L-19,76 L-16,78 L-20,78 L-26,73 L-29,65 L-29,50 L-27,40 L-23,35 L-25,19 L-22,9 L-16,2 L-13,3 L-13,12 L-14,15 L-14,27 L-11,32 L0,32 L5,30 L6,28 L6,21 L3,13 L-1,3 Z " fill="#1A1A1A" transform="translate(47,12)"/>
<path d="M0,0 L6,0 L9,4 L9,13 L6,17 L1,17 L-3,12 L-3,4 Z " fill="#0D0D0D" transform="translate(37,67)"/>
<path d="M0,0 L1,0 L2,13 L6,14 L7,16 L7,30 L9,33 L12,35 L8,35 L2,30 L-1,22 L-1,7 Z " fill="#0E0E0E" transform="translate(19,55)"/>
<path d="M0,0 L4,1 L14,7 L19,11 L24,16 L27,17 L27,19 L18,17 L4,7 L-6,3 L-4,1 Z " fill="#484848" transform="translate(55,91)"/>
<path d="M0,0 L8,2 L17,7 L25,13 L29,16 L19,15 L10,9 L0,5 Z " fill="#494949" transform="translate(47,95)"/>
<path d="M0,0 L5,2 L10,9 L12,16 L13,32 L18,38 L17,42 L14,38 L14,36 L10,37 L6,41 L4,41 L4,39 L6,39 L9,30 L9,15 L5,6 Z " fill="#151515" transform="translate(51,15)"/>
<path d="M0,0 L2,0 L0,4 L-2,6 L-3,12 L-8,11 L-11,8 L-8,5 L-3,3 Z " fill="#898989" transform="translate(76,79)"/>
<path d="M0,0 L3,3 L2,8 L-2,15 L-3,20 L-4,20 L-5,13 L0,6 Z " fill="#1D1D1D" transform="translate(24,41)"/>
<path d="M0,0 L8,2 L16,7 L13,8 L6,4 L0,2 L0,7 L-1,7 L-1,1 Z " fill="#111111" transform="translate(47,93)"/>
<path d="M0,0 L2,0 L5,13 L4,15 L1,12 Z " fill="#3A3A3A" transform="translate(42,94)"/>
<path d="M0,0 L1,2 L5,2 L4,4 L-2,9 L-4,9 L-4,7 L-2,7 Z " fill="#484848" transform="translate(59,47)"/>
<path d="M0,0 L4,2 L2,3 L3,5 L3,12 L2,12 L-1,1 Z " fill="#030303" transform="translate(47,12)"/>
<path d="M0,0 L4,1 L8,4 L7,6 L0,2 Z " fill="#3C3C3C" transform="translate(61,89)"/>
<path d="M0,0 L3,3 L2,8 L0,9 Z " fill="#252525" transform="translate(24,41)"/>
<path d="M0,0 L3,1 L3,10 L1,7 L1,2 L-1,1 Z " fill="#060606" transform="translate(31,14)"/>

<animate attributeName="opacity" dur="0.400000s" values="0;1;0" keyTimes="0;0.333333;0.500000" calcMode="discrete" repeatCount="indefinite" begin="0s"/>
</g>
<g id="frame3" opacity="0">

<path d="M0,0 L8,4 L14,12 L16,19 L16,35 L22,42 L24,49 L24,70 L28,69 L29,68 L34,68 L33,73 L31,76 L31,82 L38,93 L39,100 L35,101 L33,99 L28,99 L24,103 L25,107 L34,113 L36,117 L32,118 L16,113 L12,111 L8,111 L7,113 L1,113 L-5,109 L-6,104 L-3,100 L-5,95 L-8,91 L-10,81 L-19,80 L-26,72 L-29,64 L-29,50 L-27,40 L-23,34 L-25,20 L-23,12 L-17,3 L-13,3 L-13,12 L-14,15 L-14,27 L-11,32 L1,32 L5,30 L6,28 L6,19 L3,13 L1,10 L0,4 Z " fill="#F4F4F4" transform="translate(47,11)"/>
<path d="M0,0 L8,4 L14,12 L16,19 L16,35 L22,42 L24,49 L24,70 L28,69 L29,68 L34,68 L33,73 L31,76 L31,82 L38,93 L39,100 L35,101 L33,99 L28,99 L24,103 L25,107 L34,113 L36,117 L32,118 L16,113 L12,111 L8,111 L7,113 L1,113 L-5,109 L-6,104 L-3,100 L-5,95 L-8,91 L-10,81 L-19,80 L-26,72 L-29,64 L-29,50 L-27,40 L-23,34 L-25,20 L-23,12 L-17,3 L-13,3 L-13,12 L-14,15 L-14,27 L-11,32 L1,32 L5,30 L6,28 L6,19 L3,13 L1,10 L0,4 Z M2,3 L4,12 L8,18 L8,28 L5,34 L-12,34 L-16,29 L-16,16 L-15,10 L-16,5 L-21,10 L-23,17 L-23,26 L-21,32 L-22,37 L-26,44 L-26,56 L-23,57 L-22,59 L-22,73 L-18,78 L3,78 L12,76 L18,72 L21,67 L22,63 L22,47 L21,44 L19,44 L18,40 L17,38 L13,39 L8,44 L13,37 L14,33 L14,18 L10,9 L4,3 Z " fill="#0F0F0F" transform="translate(47,11)"/>
<path d="M0,0 L1,0 L3,8 L9,17 L10,24 L6,25 L4,23 L-1,23 L-5,27 L-4,31 L5,37 L7,41 L3,42 L-13,37 L-17,35 L-21,35 L-22,37 L-28,37 L-34,33 L-35,28 L-32,24 L-34,19 L-37,15 L-38,8 L-37,11 L-35,11 L-34,7 L-32,17 L-31,18 L-30,12 L-20,18 L-17,19 L3,20 L8,23 L7,16 L3,14 L-5,9 L-2,7 L-5,5 L-5,3 L-1,4 Z " fill="#040404" transform="translate(76,87)"/>
<path d="M0,0 L8,4 L14,12 L16,19 L16,30 L15,30 L13,18 L9,9 L2,3 L4,6 L6,13 L9,18 L9,28 L6,34 L5,35 L-12,35 L-17,29 L-17,16 L-16,10 L-17,6 L-21,10 L-19,5 L-16,2 L-13,3 L-13,12 L-14,15 L-14,27 L-11,32 L1,32 L5,30 L6,28 L6,19 L3,13 L1,10 L0,4 Z " fill="#0F0F0F" transform="translate(47,11)"/>
<path d="M0,0 L1,3 L0,7 L0,16 L2,22 L1,27 L-3,34 L-4,46 L0,47 L1,49 L1,63 L4,67 L9,69 L9,70 L3,70 L-4,62 L-7,54 L-7,40 L-5,30 L-1,24 L-3,10 L-1,2 Z " fill="#0D0D0D" transform="translate(25,21)"/>
<path d="M0,0 L6,0 L9,5 L9,13 L6,17 L1,17 L-3,12 L-3,4 Z " fill="#0D0D0D" transform="translate(37,66)"/>
<path d="M0,0 L5,0 L5,2 L12,3 L20,6 L26,10 L28,13 L8,9 L-1,5 L-5,1 Z " fill="#4F4F4F" transform="translate(54,91)"/>
<path d="M0,0 L6,2 L13,5 L19,7 L32,9 L35,12 L12,11 L2,6 L0,4 Z " fill="#4C4C4C" transform="translate(47,96)"/>
<path d="M0,0 L3,1 L3,10 L2,13 L2,25 L6,31 L6,33 L2,31 L-1,27 L-1,14 L0,8 L-1,4 L-5,8 L-3,3 Z " fill="#1A1A1A" transform="translate(31,13)"/>
<path d="M0,0 L1,3 L0,7 L0,16 L2,22 L1,27 L-3,34 L-4,39 L-5,39 L-5,30 L-1,24 L-3,10 L-1,2 Z " fill="#191919" transform="translate(25,21)"/>
<path d="M0,0 L2,0 L1,9 L-2,13 L-17,13 L-17,11 L-6,10 L-2,8 Z " fill="#0B0B0B" transform="translate(54,33)"/>
<path d="M0,0 L9,2 L14,5 L10,7 L5,6 L-2,4 L-2,1 Z " fill="#171717" transform="translate(61,89)"/>
<path d="M0,0 L1,0 L2,13 L7,18 L5,22 L3,16 L0,17 L-4,22 L-6,22 L-4,18 L-1,11 Z " fill="#363636" transform="translate(61,33)"/>
<path d="M0,0 L3,0 L1,4 L-1,6 L-2,11 L-11,8 L-9,5 L-2,3 Z " fill="#818181" transform="translate(77,80)"/>
<path d="M0,0 L3,0 L4,13 L0,9 Z " fill="#454545" transform="translate(42,93)"/>
<path d="M0,0 L1,0 L1,11 L3,11 L7,17 L7,19 L3,17 L0,13 Z " fill="#272727" transform="translate(30,27)"/>
<path d="M0,0 L9,2 L14,5 L12,6 L-2,2 Z " fill="#3F3F3F" transform="translate(61,89)"/>
<path d="M0,0 L4,4 L6,8 L6,12 L4,12 L0,3 Z " fill="#232323" transform="translate(50,21)"/>
<path d="M0,0 L1,0 L2,13 L3,15 L-1,15 Z " fill="#292929" transform="translate(61,33)"/>
<path d="M0,0 L4,2 L6,5 L-4,3 L0,2 Z " fill="#444444" transform="translate(76,99)"/>

<animate attributeName="opacity" dur="0.400000s" values="0;1;0" keyTimes="0;0.500000;0.666667" calcMode="discrete" repeatCount="indefinite" begin="0s"/>
</g>
<g id="frame4" opacity="0">

<path d="M0,0 L5,1 L11,5 L16,13 L17,17 L17,32 L23,40 L25,47 L26,61 L25,65 L31,62 L35,63 L36,67 L32,73 L30,78 L31,83 L35,87 L42,88 L43,92 L38,96 L30,99 L29,102 L23,102 L23,104 L27,106 L26,109 L22,111 L17,110 L12,107 L13,116 L10,116 L6,112 L4,106 L3,98 L-4,91 L-9,80 L-18,77 L-25,71 L-28,62 L-28,47 L-26,38 L-23,34 L-23,13 L-19,5 L-15,1 L-12,2 L-12,10 L-13,13 L-13,24 L-11,29 L-9,30 L2,30 L6,28 L7,26 L7,17 L3,11 Z " fill="#F5F5F5" transform="translate(45,17)"/>
<path d="M0,0 L5,1 L11,5 L16,13 L17,17 L17,32 L23,40 L25,47 L26,61 L25,65 L31,62 L35,63 L36,67 L32,73 L30,78 L31,83 L35,87 L42,88 L43,92 L38,96 L30,99 L29,102 L23,102 L23,104 L27,106 L26,109 L22,111 L17,110 L12,107 L13,116 L10,116 L6,112 L4,106 L3,98 L-4,91 L-9,80 L-18,77 L-25,71 L-28,62 L-28,47 L-26,38 L-23,34 L-23,13 L-19,5 L-15,1 L-12,2 L-12,10 L-13,13 L-13,24 L-11,29 L-9,30 L2,30 L6,28 L7,26 L7,17 L3,11 Z M3,2 L5,11 L8,16 L9,19 L9,27 L5,32 L-11,32 L-15,26 L-15,15 L-14,9 L-15,4 L-19,8 L-22,16 L-22,23 L-19,35 L-22,36 L-25,41 L-25,53 L-21,57 L-21,72 L-16,76 L5,76 L15,73 L20,69 L23,61 L23,46 L19,37 L15,36 L10,41 L14,35 L15,31 L15,16 L10,6 L5,2 Z " fill="#080808" transform="translate(45,17)"/>
<path d="M0,0 L5,1 L3,2 L5,5 L7,12 L10,19 L10,27 L5,33 L-11,33 L-15,28 L-16,26 L-16,15 L-15,9 L-16,5 L-20,12 L-21,16 L-21,23 L-19,30 L-19,35 L-22,38 L-24,41 L-24,53 L-20,57 L-20,72 L-16,75 L-2,76 L-2,77 L-17,78 L-25,71 L-28,62 L-28,47 L-26,38 L-23,34 L-23,13 L-19,5 L-15,1 L-12,2 L-12,10 L-13,13 L-13,24 L-11,29 L-9,30 L2,30 L6,28 L7,26 L7,17 L3,11 Z " fill="#141414" transform="translate(45,17)"/>
<path d="M0,0 L6,0 L9,6 L9,13 L6,17 L1,17 L-3,12 L-3,4 Z " fill="#0B0B0B" transform="translate(36,70)"/>
<path d="M0,0 L4,1 L9,6 L17,10 L27,13 L34,14 L32,16 L19,16 L10,12 L3,8 L3,6 L1,6 Z " fill="#474747" transform="translate(46,96)"/>
<path d="M0,0 L7,0 L13,3 L26,11 L26,12 L15,12 L7,8 L0,2 Z " fill="#4B4B4B" transform="translate(52,95)"/>
<path d="M0,0 L5,1 L3,2 L5,5 L7,12 L10,19 L10,27 L5,33 L-11,33 L-14,30 L-14,27 L-12,27 L-9,30 L2,30 L6,28 L7,26 L7,17 L3,11 Z " fill="#191919" transform="translate(45,17)"/>
<path d="M0,0 L5,2 L9,7 L12,15 L12,30 L13,34 L10,35 L6,40 L4,39 L8,33 L9,29 L9,14 L5,6 L5,4 L1,2 Z " fill="#060606" transform="translate(50,19)"/>
<path d="M0,0 L2,0 L0,4 L-2,8 L-4,12 L-6,12 L-10,7 L-8,5 L-3,3 Z " fill="#878787" transform="translate(76,82)"/>
<path d="M0,0 L1,0 L2,13 L3,17 L0,18 L-4,23 L-6,22 L-2,16 Z " fill="#373737" transform="translate(60,36)"/>
<path d="M0,0 L2,0 L5,3 L16,4 L15,6 L3,6 L0,3 Z M16,3 Z " fill="#080808" transform="translate(31,44)"/>
<path d="M0,0 L5,1 L3,2 L5,5 L6,14 L3,11 Z " fill="#080808" transform="translate(45,17)"/>
<path d="M0,0 L1,0 L3,7 L3,12 L0,13 L-1,11 Z M-2,12 Z " fill="#252525" transform="translate(23,40)"/>
<path d="M0,0 L3,1 L3,2 L-2,2 L-2,4 L-11,2 L-11,1 Z " fill="#141414" transform="translate(78,106)"/>
<path d="M0,0 L5,2 L9,7 L9,9 L6,8 L5,4 L1,2 Z " fill="#191919" transform="translate(50,19)"/>
<path d="M0,0 L4,1 L8,6 L2,4 L-1,1 Z " fill="#404040" transform="translate(62,92)"/>
<path d="M0,0 L1,3 L-1,6 L-2,12 L-3,12 L-3,3 Z " fill="#161616" transform="translate(22,52)"/>

<animate attributeName="opacity" dur="0.400000s" values="0;1;0" keyTimes="0;0.666667;0.833333" calcMode="discrete" repeatCount="indefinite" begin="0s"/>
</g>
<g id="frame5" opacity="0">

<path d="M0,0 L8,4 L14,13 L16,19 L16,35 L22,42 L24,49 L24,67 L23,70 L30,67 L34,66 L35,71 L31,76 L29,82 L27,85 L28,90 L32,96 L39,100 L38,103 L29,105 L23,106 L19,108 L20,120 L16,120 L13,118 L13,116 L9,114 L4,110 L0,101 L-5,97 L-10,88 L-11,82 L-19,79 L-24,76 L-28,68 L-29,65 L-29,50 L-27,40 L-23,35 L-24,29 L-24,14 L-20,6 L-16,2 L-13,3 L-13,12 L-14,15 L-14,27 L-13,32 L2,32 L6,31 L7,23 L4,14 L2,12 L-1,1 Z " fill="#F5F5F5" transform="translate(47,12)"/>
<path d="M0,0 L8,4 L14,13 L16,19 L16,35 L22,42 L24,49 L24,67 L23,70 L30,67 L34,66 L35,71 L31,76 L29,82 L27,85 L28,90 L32,96 L39,100 L38,103 L29,105 L23,106 L19,108 L20,120 L16,120 L13,118 L13,116 L9,114 L4,110 L0,101 L-5,97 L-10,88 L-11,82 L-19,79 L-24,76 L-28,68 L-29,65 L-29,50 L-27,40 L-23,35 L-24,29 L-24,14 L-20,6 L-16,2 L-13,3 L-13,12 L-14,15 L-14,27 L-13,32 L2,32 L6,31 L7,23 L4,14 L2,12 L-1,1 Z M2,3 L4,12 L7,17 L8,27 L7,33 L4,34 L-12,34 L-16,29 L-16,15 L-15,10 L-16,5 L-20,9 L-23,17 L-23,26 L-21,36 L-24,40 L-24,43 L-26,43 L-26,53 L-25,56 L-22,59 L-22,74 L-17,78 L4,78 L14,75 L19,70 L22,63 L22,47 L18,39 L14,38 L10,43 L8,44 L8,42 L10,42 L14,33 L14,18 L9,8 L4,3 Z " fill="#090909" transform="translate(47,12)"/>
<path d="M0,0 L8,4 L14,13 L16,19 L16,35 L17,38 L14,39 L10,44 L8,44 L8,42 L10,42 L13,33 L13,18 L8,8 L2,3 L4,6 L6,13 L9,21 L8,31 L4,35 L-12,35 L-17,29 L-17,15 L-16,10 L-17,6 L-21,13 L-23,17 L-23,11 L-17,3 L-13,3 L-13,12 L-14,15 L-14,27 L-13,32 L2,32 L6,31 L7,23 L4,14 L2,12 L-1,1 Z " fill="#1C1C1C" transform="translate(47,12)"/>
<path d="M0,0 L5,0 L11,6 L10,8 L3,2 L7,7 L17,18 L14,19 L3,10 L-1,7 L-1,5 L-5,4 L0,9 L7,16 L13,20 L21,22 L21,23 L11,23 L1,18 L-4,15 L-4,13 L-8,11 L-11,8 L-12,3 Z " fill="#494949" transform="translate(58,91)"/>
<path d="M0,0 L6,0 L9,5 L9,13 L6,17 L1,17 L-3,12 L-3,4 Z " fill="#0C0C0C" transform="translate(37,67)"/>
<path d="M0,0 L5,0 L11,6 L10,8 L3,2 L7,7 L17,18 L14,19 L3,10 L-1,7 L-1,5 L-5,4 L-8,4 L-5,1 Z " fill="#3F3F3F" transform="translate(58,91)"/>
<path d="M0,0 L3,0 L1,4 L-3,7 L-5,14 L-9,14 L-9,12 L-12,11 L-13,8 L-11,6 L-4,4 Z " fill="#8C8C8C" transform="translate(78,80)"/>
<path d="M0,0 L1,0 L2,14 L3,17 L0,18 L-4,23 L-6,23 L-6,21 L-4,21 L-1,12 Z " fill="#3A3A3A" transform="translate(61,33)"/>
<path d="M0,0 L4,1 L11,9 L8,10 L0,4 Z " fill="#4A4A4A" transform="translate(64,100)"/>
<path d="M0,0 L1,0 L3,17 L4,22 L0,26 L0,23 L1,18 L0,15 Z M-2,25 Z M-3,26 Z " fill="#0D0D0D" transform="translate(23,26)"/>
<path d="M0,0 L2,1 L2,6 L-3,7 L-3,5 L-6,4 L-3,1 Z " fill="#949494" transform="translate(72,87)"/>
<path d="M0,0 L3,0 L5,7 L7,11 L7,17 L5,13 L2,7 Z " fill="#191919" transform="translate(48,18)"/>
<path d="M0,0 L1,0 L0,10 L-4,14 L-8,13 L-4,10 L-2,10 Z " fill="#3C3C3C" transform="translate(55,33)"/>
<path d="M0,0 L5,5 L6,12 L4,10 L0,2 Z " fill="#050505" transform="translate(64,49)"/>
<path d="M0,0 L1,4 L-1,4 L-1,13 L-2,13 L-3,3 Z " fill="#222222" transform="translate(22,51)"/>
<path d="M0,0 L6,3 L5,5 L2,3 L3,6 L1,6 L-1,1 Z " fill="#070707" transform="translate(47,12)"/>
<path d="M0,0 L3,1 L3,10 L1,7 L1,2 L-1,1 Z " fill="#060606" transform="translate(31,14)"/>

<animate attributeName="opacity" dur="0.400000s" values="0;1;0" keyTimes="0;0.833333;1.000000" calcMode="discrete" repeatCount="indefinite" begin="0s"/>
</g>
</g>
</svg>
